<?xml version="1.0" encoding="UTF-8"?>
<svg xmlns="http://www.w3.org/2000/svg" viewBox="0 0 512 512" width="512" height="512">
  <defs>
    <linearGradient id="nGrad" x1="0%" y1="0%" x2="100%" y2="100%">
      <stop offset="0%" style="stop-color:#22C55E"/>
      <stop offset="50%" style="stop-color:#16A34A"/>
      <stop offset="100%" style="stop-color:#15803D"/>
    </linearGradient>
    <linearGradient id="leafGrad" x1="0%" y1="0%" x2="100%" y2="0%">
      <stop offset="0%" style="stop-color:#22C55E"/>
      <stop offset="100%" style="stop-color:#4ADE80"/>
    </linearGradient>
  </defs>
  
  <!-- White background -->
  <rect width="512" height="512" rx="80" ry="80" fill="#FFFFFF"/>
  
  <!-- Ribbon N shape -->
  <path d="
    M 120 400
    L 120 140
    Q 120 112 148 112
    Q 176 112 176 140
    L 176 300
    L 320 112
    Q 336 96 352 112
    Q 360 120 360 140
    L 360 400
    Q 360 428 336 428
    Q 312 428 312 400
    L 312 230
    L 176 408
    Q 160 428 144 408
    Z
  " fill="url(#nGrad)"/>
  
  <!-- Leaf accent at top-right of N -->
  <path d="
    M 348 108
    Q 370 70 410 58
    Q 420 56 418 66
    Q 412 90 388 108
    Q 370 120 348 118
    Z
  " fill="url(#leafGrad)"/>
  
  <!-- Leaf vein -->
  <line x1="350" y1="112" x2="410" y2="62" stroke="#15803D" stroke-width="2" opacity="0.4"/>
</svg>
